<svg width="140" height="30" viewBox="0 0 140 30" fill="none" xmlns="http://www.w3.org/2000/svg">
<path d="M36.05 21.8538H42.1287C46.5864 21.8538 49.1755 18.4525 49.1755 13.9712C49.1755 9.46689 46.5864 6.01971 42.1287 6.01971H36.05V21.8538ZM39.1794 19.0271V8.8464H42.1287C44.7178 8.8464 46.0461 11.2594 46.0461 13.9712C46.0461 16.683 44.7178 19.0271 42.1287 19.0271H39.1794Z" fill="#111111"/>
<path d="M61.5578 16.3153C61.5578 13.029 59.1038 10.8687 56.1094 10.8687C53.0926 10.8687 50.526 13.029 50.526 16.4991C50.526 19.8084 52.8899 22.0606 56.1094 22.0606C57.9556 22.0606 59.8017 21.3252 60.7923 19.9693L59.0587 18.1997C58.4283 18.9581 57.3702 19.3948 56.312 19.3948C54.8937 19.3948 53.9031 18.7053 53.5879 17.4643H61.5127C61.5352 16.9817 61.5578 16.614 61.5578 16.3153ZM53.5879 15.5109C53.9031 14.0631 54.9612 13.4886 56.1544 13.4886C57.4828 13.4886 58.5184 14.247 58.6085 15.5109H53.5879Z" fill="#111111"/>
<path d="M67.1069 22.0606C69.2682 22.0606 71.5196 20.9575 71.5196 18.7053C71.5196 17.832 71.2044 16.2234 68.6828 15.5339L66.9493 15.0743C66.3639 14.9134 65.9136 14.6606 65.9136 14.1551C65.9136 13.6035 66.454 13.2588 67.1294 13.2588C67.8273 13.2588 68.4127 13.6495 68.4127 14.3619H71.2269C71.2494 11.834 68.998 10.8687 67.0844 10.8687C64.6529 10.8687 62.9643 12.4085 62.9643 14.0631C62.9643 15.1892 63.3246 16.7289 66.0262 17.4643L67.4221 17.8091C68.2101 18.0159 68.5703 18.2457 68.5703 18.7053C68.5703 19.3258 67.9174 19.6935 67.0619 19.6935C66.0262 19.6935 65.5084 19.0271 65.5084 18.4066H62.7392C62.7617 20.7736 64.9005 22.0606 67.1069 22.0606Z" fill="#111111"/>
<path d="M74.8706 9.23708C75.9062 9.23708 76.7393 8.43273 76.7393 7.42156C76.7393 6.41039 75.9062 5.62903 74.8706 5.62903C73.8575 5.62903 73.002 6.41039 73.002 7.42156C73.002 8.43273 73.8575 9.23708 74.8706 9.23708ZM73.4072 21.8538H76.3565V11.1445H73.4072V21.8538Z" fill="#111111"/>
<path d="M86.7736 11.1445V12.4085C86.0081 11.3743 84.5897 10.8917 83.3965 10.8917C80.6948 10.8917 78.2408 13.029 78.2408 16.4762C78.2408 19.9233 80.6948 22.0606 83.3965 22.0606C84.5672 22.0606 86.0081 21.578 86.7736 20.5438V20.7047C86.7736 23.5084 85.5803 24.5655 83.6892 24.5655C82.5635 24.5655 81.4828 23.8761 81.0325 22.9109L78.5785 23.991C79.4791 25.9674 81.4378 27.2543 83.6892 27.2543C87.4039 27.2543 89.7229 25.0711 89.7229 20.383V11.1445H86.7736ZM83.9593 19.2569C82.4734 19.2569 81.2352 18.0389 81.2352 16.4762C81.2352 14.8905 82.4734 13.7184 83.9593 13.7184C85.3327 13.7184 86.6835 14.8215 86.6835 16.4762C86.6835 18.1078 85.4002 19.2569 83.9593 19.2569Z" fill="#111111"/>
<path d="M98.3514 10.8687C97.3158 10.8687 95.6498 11.4892 95.1995 12.9371V11.1445H92.2502V21.8538H95.1995V16.3612C95.1995 14.4078 96.5053 13.8333 97.5635 13.8333C98.5766 13.8333 99.5672 14.5917 99.5672 16.2923V21.8538H102.516V15.9706C102.539 12.7532 101.098 10.8687 98.3514 10.8687Z" fill="#111111"/>
<path d="M117.534 21.8538L110.307 13.9023L116.183 6.01971H112.288L108.438 11.4203V6.01971H105.309V21.8538H108.438V16.2923L113.279 21.8538H117.534Z" fill="#111111"/>
<path d="M119.658 9.23708C120.694 9.23708 121.527 8.43273 121.527 7.42156C121.527 6.41039 120.694 5.62903 119.658 5.62903C118.645 5.62903 117.789 6.41039 117.789 7.42156C117.789 8.43273 118.645 9.23708 119.658 9.23708ZM118.195 21.8538H121.144V11.1445H118.195V21.8538Z" fill="#111111"/>
<path d="M129.85 11.1445H127.621V7.21473H124.672V11.1445H122.758V13.4656H124.672V21.8538H127.621V13.4656H129.85V11.1445Z" fill="#111111"/>
<path fill-rule="evenodd" clip-rule="evenodd" d="M14.1656 18.4353C14.1656 18.2485 14.1856 18.0674 14.2232 17.8938C14.2886 17.5917 14.1084 17.2912 13.8207 17.2226C13.533 17.1539 13.2468 17.3431 13.1814 17.6451C13.1262 17.8997 13.0972 18.1643 13.0972 18.4353V18.916C13.0972 19.2257 13.3364 19.4768 13.6314 19.4768C13.9264 19.4768 14.1656 19.2257 14.1656 18.916V18.4353ZM13.6314 20.7587C13.3364 20.7587 13.0972 21.0098 13.0972 21.3195V21.8002C13.0972 22.0712 13.1262 22.3358 13.1814 22.5905C13.2468 22.8925 13.533 23.0817 13.8207 23.013C14.1084 22.9443 14.2886 22.6438 14.2232 22.3418C14.1856 22.1682 14.1656 21.987 14.1656 21.8002V21.3195C14.1656 21.0098 13.9264 20.7587 13.6314 20.7587ZM15.3252 15.6429C15.3906 15.945 15.6768 16.1342 15.9645 16.0655C16.1299 16.026 16.3025 16.0051 16.4803 16.0051H17.0908C17.3858 16.0051 17.625 15.754 17.625 15.4442C17.625 15.1345 17.3858 14.8834 17.0908 14.8834H16.4803C16.2222 14.8834 15.9702 14.9139 15.7277 14.9718C15.44 15.0404 15.2598 15.3409 15.3252 15.6429ZM15.3252 24.5926C15.2598 24.8946 15.44 25.1951 15.7277 25.2638C15.9702 25.3217 16.2222 25.3521 16.4803 25.3521H17.0908C17.3858 25.3521 17.625 25.1011 17.625 24.7913C17.625 24.4816 17.3858 24.2305 17.0908 24.2305H16.4803C16.3025 24.2305 16.1299 24.2095 15.9645 24.1701C15.6768 24.1014 15.3906 24.2906 15.3252 24.5926ZM19.6091 15.4442C19.6091 15.754 19.8482 16.0051 20.1432 16.0051H20.7537C20.9316 16.0051 21.1042 16.026 21.2695 16.0655C21.5572 16.1342 21.8434 15.945 21.9088 15.6429C21.9742 15.3409 21.794 15.0404 21.5064 14.9718C21.2638 14.9139 21.0118 14.8834 20.7537 14.8834H20.1432C19.8482 14.8834 19.6091 15.1345 19.6091 15.4442ZM19.6091 24.7913C19.6091 25.1011 19.8482 25.3521 20.1432 25.3521H20.7537C21.0118 25.3521 21.2638 25.3217 21.5064 25.2638C21.794 25.1951 21.9742 24.8946 21.9088 24.5926C21.8434 24.2906 21.5572 24.1014 21.2695 24.1701C21.1042 24.2095 20.9316 24.2305 20.7537 24.2305H20.1432C19.8482 24.2305 19.6091 24.4816 19.6091 24.7913ZM23.4134 17.2226C23.1257 17.2912 22.9455 17.5917 23.0109 17.8937C23.0485 18.0674 23.0685 18.2485 23.0685 18.4353V18.916C23.0685 19.2257 23.3076 19.4768 23.6026 19.4768C23.8976 19.4768 24.1368 19.2257 24.1368 18.916V18.4353C24.1368 18.1643 24.1078 17.8997 24.0527 17.6451C23.9872 17.3431 23.701 17.1539 23.4134 17.2226ZM23.4134 23.013C23.701 23.0817 23.9872 22.8925 24.0527 22.5905C24.1078 22.3358 24.1368 22.0712 24.1368 21.8002V21.3195C24.1368 21.0098 23.8976 20.7587 23.6026 20.7587C23.3076 20.7587 23.0685 21.0098 23.0685 21.3195V21.8002C23.0685 21.987 23.0485 22.1682 23.0109 22.3418C22.9455 22.6438 23.1257 22.9443 23.4134 23.013Z" fill="#111111"/>
<path fill-rule="evenodd" clip-rule="evenodd" d="M14.6998 10.2099V6.09715C14.6998 5.27119 15.3375 4.60161 16.1242 4.60161L21.1098 4.60161C21.8965 4.60161 22.5343 5.27119 22.5343 6.09715V10.2099C22.5343 11.0358 21.8965 11.7054 21.1098 11.7054H16.1242C15.3375 11.7054 14.6998 11.0358 14.6998 10.2099ZM13.2753 6.09715C13.2753 4.44523 14.5508 3.10608 16.1242 3.10608L21.1098 3.10608C22.6832 3.10608 23.9587 4.44523 23.9587 6.09715V10.2099C23.9587 11.8618 22.6832 13.2009 21.1098 13.2009H16.1242C14.5508 13.2009 13.2753 11.8618 13.2753 10.2099V6.09715Z" fill="#111111"/>
<path d="M18.6345 10.2738L20.2362 7.22593L22.5343 12.0731H20.722L20.725 12.0793H14.3436L17.5343 5.34938L19.0956 8.24835L18.6345 10.2738Z" fill="#111111"/>
<path fill-rule="evenodd" clip-rule="evenodd" d="M1.52352 22.548L1.52352 18.4353C1.52352 17.6093 2.16127 16.9398 2.94798 16.9398H7.93358C8.72029 16.9398 9.35804 17.6093 9.35804 18.4353V22.548C9.35804 23.374 8.72029 24.0435 7.93358 24.0435H2.94798C2.16127 24.0435 1.52352 23.374 1.52352 22.548ZM0.0990602 18.4353C0.0990603 16.7834 1.37456 15.4442 2.94798 15.4442H7.93358C9.507 15.4442 10.7825 16.7834 10.7825 18.4353V22.548C10.7825 24.1999 9.507 25.5391 7.93358 25.5391H2.94798C1.37456 25.5391 0.09906 24.1999 0.0990601 22.548L0.0990602 18.4353Z" fill="#111111"/>
<path fill-rule="evenodd" clip-rule="evenodd" d="M3.30409 19.1831C3.30409 18.7701 3.62297 18.4353 4.01632 18.4353H6.86524C7.25859 18.4353 7.57747 18.7701 7.57747 19.1831C7.57747 19.596 7.25859 19.9308 6.86524 19.9308H4.01632C3.62297 19.9308 3.30409 19.596 3.30409 19.1831Z" fill="#111111"/>
<path fill-rule="evenodd" clip-rule="evenodd" d="M3.30409 21.8002C3.30409 21.3873 3.62297 21.0525 4.01632 21.0525H6.86524C7.25859 21.0525 7.57747 21.3873 7.57747 21.8002C7.57747 22.2132 7.25859 22.548 6.86524 22.548H4.01632C3.62297 22.548 3.30409 22.2132 3.30409 21.8002Z" fill="#111111"/>
<path fill-rule="evenodd" clip-rule="evenodd" d="M1.52352 10.2099L1.52352 6.09715C1.52352 5.27119 2.16127 4.60161 2.94798 4.60161L7.93358 4.60161C8.72029 4.60161 9.35804 5.27119 9.35804 6.09715V10.2099C9.35804 11.0358 8.72029 11.7054 7.93358 11.7054H2.94798C2.16127 11.7054 1.52352 11.0358 1.52352 10.2099ZM0.0990602 6.09715C0.0990603 4.44523 1.37456 3.10608 2.94798 3.10608L7.93358 3.10608C9.507 3.10608 10.7825 4.44523 10.7825 6.09715V10.2099C10.7825 11.8618 9.507 13.2009 7.93358 13.2009H2.94798C1.37456 13.2009 0.09906 11.8618 0.0990601 10.2099L0.0990602 6.09715Z" fill="#111111"/>
<path d="M6.59409 10.5647H7.7074L6.0141 5.74229H4.87412L3.17416 10.5647H4.29414L4.63413 9.44485H6.24743L6.59409 10.5647ZM4.92079 8.49296L5.43411 6.80616L5.9541 8.49296H4.92079Z" fill="#111111"/>
</svg>
