<svg width="141" height="29" viewBox="0 0 141 29" fill="none" xmlns="http://www.w3.org/2000/svg">
<path d="M36.5422 21.2706H42.6209C47.0786 21.2706 49.6677 17.8694 49.6677 13.3881C49.6677 8.88376 47.0786 5.43658 42.6209 5.43658H36.5422V21.2706ZM39.6716 18.4439V8.26327H42.6209C45.21 8.26327 46.5383 10.6763 46.5383 13.3881C46.5383 16.0999 45.21 18.4439 42.6209 18.4439H39.6716Z" fill="white"/>
<path d="M62.0499 15.7322C62.0499 12.4458 59.5959 10.2856 56.6016 10.2856C53.5848 10.2856 51.0182 12.4458 51.0182 15.916C51.0182 19.2253 53.3821 21.4775 56.6016 21.4775C58.4477 21.4775 60.2939 20.7421 61.2845 19.3862L59.5509 17.6166C58.9205 18.375 57.8624 18.8116 56.8042 18.8116C55.3859 18.8116 54.3953 18.1222 54.0801 16.8812H62.0049C62.0274 16.3986 62.0499 16.0309 62.0499 15.7322ZM54.0801 14.9278C54.3953 13.48 55.4534 12.9055 56.6466 12.9055C57.9749 12.9055 59.0106 13.6638 59.1006 14.9278H54.0801Z" fill="white"/>
<path d="M67.5991 21.4775C69.7604 21.4775 72.0118 20.3744 72.0118 18.1222C72.0118 17.2489 71.6966 15.6402 69.175 14.9508L67.4415 14.4912C66.8561 14.3303 66.4058 14.0775 66.4058 13.5719C66.4058 13.0204 66.9462 12.6757 67.6216 12.6757C68.3195 12.6757 68.9049 13.0663 68.9049 13.7788H71.7191C71.7416 11.2508 69.4902 10.2856 67.5766 10.2856C65.1451 10.2856 63.4565 11.8254 63.4565 13.48C63.4565 14.6061 63.8167 16.1458 66.5184 16.8812L67.9143 17.2259C68.7022 17.4328 69.0625 17.6626 69.0625 18.1222C69.0625 18.7427 68.4096 19.1104 67.554 19.1104C66.5184 19.1104 66.0006 18.4439 66.0006 17.8234H63.2314C63.2539 20.1905 65.3927 21.4775 67.5991 21.4775Z" fill="white"/>
<path d="M75.3628 8.65395C76.3984 8.65395 77.2314 7.8496 77.2314 6.83843C77.2314 5.82726 76.3984 5.0459 75.3628 5.0459C74.3497 5.0459 73.4942 5.82726 73.4942 6.83843C73.4942 7.8496 74.3497 8.65395 75.3628 8.65395ZM73.8994 21.2706H76.8487V10.5614H73.8994V21.2706Z" fill="white"/>
<path d="M87.2657 10.5614V11.8254C86.5003 10.7912 85.0819 10.3086 83.8887 10.3086C81.187 10.3086 78.733 12.4458 78.733 15.893C78.733 19.3402 81.187 21.4775 83.8887 21.4775C85.0594 21.4775 86.5003 20.9949 87.2657 19.9607V20.1216C87.2657 22.9253 86.0725 23.9824 84.1814 23.9824C83.0557 23.9824 81.975 23.293 81.5247 22.3278L79.0707 23.4079C79.9713 25.3843 81.93 26.6712 84.1814 26.6712C87.8961 26.6712 90.215 24.488 90.215 19.7998V10.5614H87.2657ZM84.4515 18.6738C82.9656 18.6738 81.7273 17.4557 81.7273 15.893C81.7273 14.3073 82.9656 13.1353 84.4515 13.1353C85.8249 13.1353 87.1757 14.2384 87.1757 15.893C87.1757 17.5247 85.8924 18.6738 84.4515 18.6738Z" fill="white"/>
<path d="M98.8436 10.2856C97.808 10.2856 96.142 10.9061 95.6917 12.3539V10.5614H92.7424V21.2706H95.6917V15.7781C95.6917 13.8247 96.9975 13.2502 98.0556 13.2502C99.0688 13.2502 100.059 14.0086 100.059 15.7092V21.2706H103.009V15.3874C103.031 12.1701 101.59 10.2856 98.8436 10.2856Z" fill="white"/>
<path d="M118.026 21.2706L110.799 13.3191L116.675 5.43658H112.78L108.931 10.8372V5.43658H105.801V21.2706H108.931V15.7092L113.771 21.2706H118.026Z" fill="white"/>
<path d="M120.15 8.65395C121.186 8.65395 122.019 7.8496 122.019 6.83843C122.019 5.82726 121.186 5.0459 120.15 5.0459C119.137 5.0459 118.282 5.82726 118.282 6.83843C118.282 7.8496 119.137 8.65395 120.15 8.65395ZM118.687 21.2706H121.636V10.5614H118.687V21.2706Z" fill="white"/>
<path d="M130.342 10.5614H128.113V6.6316H125.164V10.5614H123.25V12.8825H125.164V21.2706H128.113V12.8825H130.342V10.5614Z" fill="white"/>
<path fill-rule="evenodd" clip-rule="evenodd" d="M14.6578 17.8522C14.6578 17.6654 14.6777 17.4842 14.7153 17.3106C14.7807 17.0086 14.6006 16.7081 14.3129 16.6394C14.0252 16.5708 13.739 16.7599 13.6736 17.062C13.6184 17.3166 13.5894 17.5812 13.5894 17.8522V18.3329C13.5894 18.6426 13.8286 18.8937 14.1236 18.8937C14.4186 18.8937 14.6578 18.6426 14.6578 18.3329V17.8522ZM14.1236 20.1756C13.8286 20.1756 13.5894 20.4267 13.5894 20.7364V21.2171C13.5894 21.4881 13.6184 21.7527 13.6736 22.0073C13.739 22.3094 14.0252 22.4985 14.3129 22.4299C14.6006 22.3612 14.7807 22.0607 14.7153 21.7587C14.6777 21.585 14.6578 21.4039 14.6578 21.2171V20.7364C14.6578 20.4267 14.4186 20.1756 14.1236 20.1756ZM15.8174 15.0598C15.8828 15.3618 16.169 15.551 16.4567 15.4824C16.6221 15.4429 16.7946 15.4219 16.9725 15.4219H17.583C17.878 15.4219 18.1172 15.1708 18.1172 14.8611C18.1172 14.5514 17.878 14.3003 17.583 14.3003H16.9725C16.7144 14.3003 16.4624 14.3307 16.2199 14.3886C15.9322 14.4573 15.752 14.7578 15.8174 15.0598ZM15.8174 24.0095C15.752 24.3115 15.9322 24.612 16.2199 24.6807C16.4624 24.7386 16.7144 24.769 16.9725 24.769H17.583C17.878 24.769 18.1172 24.5179 18.1172 24.2082C18.1172 23.8985 17.878 23.6474 17.583 23.6474H16.9725C16.7946 23.6474 16.6221 23.6264 16.4567 23.5869C16.169 23.5183 15.8828 23.7074 15.8174 24.0095ZM20.1012 14.8611C20.1012 15.1708 20.3404 15.4219 20.6354 15.4219H21.2459C21.4238 15.4219 21.5963 15.4429 21.7617 15.4824C22.0494 15.551 22.3356 15.3618 22.401 15.0598C22.4664 14.7578 22.2862 14.4573 21.9985 14.3886C21.756 14.3307 21.504 14.3003 21.2459 14.3003H20.6354C20.3404 14.3003 20.1012 14.5514 20.1012 14.8611ZM20.1012 24.2082C20.1012 24.5179 20.3404 24.769 20.6354 24.769H21.2459C21.504 24.769 21.756 24.7386 21.9985 24.6807C22.2862 24.612 22.4664 24.3115 22.401 24.0095C22.3356 23.7074 22.0494 23.5183 21.7617 23.5869C21.5963 23.6264 21.4238 23.6474 21.2459 23.6474H20.6354C20.3404 23.6474 20.1012 23.8985 20.1012 24.2082ZM23.9055 16.6394C23.6179 16.7081 23.4377 17.0086 23.5031 17.3106C23.5407 17.4842 23.5606 17.6654 23.5606 17.8522V18.3329C23.5606 18.6426 23.7998 18.8937 24.0948 18.8937C24.3898 18.8937 24.629 18.6426 24.629 18.3329V17.8522C24.629 17.5812 24.6 17.3166 24.5448 17.062C24.4794 16.7599 24.1932 16.5708 23.9055 16.6394ZM23.9055 22.4299C24.1932 22.4985 24.4794 22.3094 24.5448 22.0073C24.6 21.7527 24.629 21.4881 24.629 21.2171V20.7364C24.629 20.4267 24.3898 20.1756 24.0948 20.1756C23.7998 20.1756 23.5606 20.4267 23.5606 20.7364V21.2171C23.5606 21.4039 23.5407 21.585 23.5031 21.7587C23.4377 22.0607 23.6179 22.3612 23.9055 22.4299Z" fill="white"/>
<path fill-rule="evenodd" clip-rule="evenodd" d="M15.1919 9.62673V5.51402C15.1919 4.68806 15.8297 4.01848 16.6164 4.01848L21.602 4.01848C22.3887 4.01848 23.0265 4.68806 23.0265 5.51402V9.62673C23.0265 10.4527 22.3887 11.1223 21.602 11.1223H16.6164C15.8297 11.1223 15.1919 10.4527 15.1919 9.62673ZM13.7675 5.51402C13.7675 3.8621 15.043 2.52295 16.6164 2.52295L21.602 2.52295C23.1754 2.52295 24.4509 3.8621 24.4509 5.51402V9.62673C24.4509 11.2787 23.1754 12.6178 21.602 12.6178H16.6164C15.043 12.6178 13.7675 11.2787 13.7675 9.62673V5.51402Z" fill="white"/>
<path d="M19.1267 9.69066L20.7284 6.6428L23.0265 11.49H21.2142L21.2172 11.4962H14.8358L18.0265 4.76625L19.5878 7.66522L19.1267 9.69066Z" fill="white"/>
<path fill-rule="evenodd" clip-rule="evenodd" d="M2.01571 21.9649L2.01571 17.8522C2.01571 17.0262 2.65346 16.3566 3.44016 16.3566H8.42577C9.21248 16.3566 9.85023 17.0262 9.85023 17.8522V21.9649C9.85023 22.7908 9.21248 23.4604 8.42577 23.4604H3.44016C2.65346 23.4604 2.01571 22.7908 2.01571 21.9649ZM0.591248 17.8522C0.591248 16.2002 1.86675 14.8611 3.44016 14.8611H8.42577C9.99918 14.8611 11.2747 16.2002 11.2747 17.8522V21.9649C11.2747 23.6168 9.99918 24.956 8.42577 24.956H3.44016C1.86675 24.956 0.591247 23.6168 0.591248 21.9649L0.591248 17.8522Z" fill="white"/>
<path fill-rule="evenodd" clip-rule="evenodd" d="M3.79628 18.5999C3.79628 18.187 4.11516 17.8522 4.50851 17.8522H7.35743C7.75078 17.8522 8.06965 18.187 8.06965 18.5999C8.06965 19.0129 7.75078 19.3477 7.35743 19.3477H4.50851C4.11516 19.3477 3.79628 19.0129 3.79628 18.5999Z" fill="white"/>
<path fill-rule="evenodd" clip-rule="evenodd" d="M3.79628 21.2171C3.79628 20.8041 4.11516 20.4694 4.50851 20.4694H7.35743C7.75078 20.4694 8.06965 20.8041 8.06965 21.2171C8.06965 21.6301 7.75078 21.9649 7.35743 21.9649H4.50851C4.11516 21.9649 3.79628 21.6301 3.79628 21.2171Z" fill="white"/>
<path fill-rule="evenodd" clip-rule="evenodd" d="M2.01571 9.62673L2.01571 5.51402C2.01571 4.68806 2.65346 4.01848 3.44016 4.01848L8.42577 4.01848C9.21248 4.01848 9.85023 4.68806 9.85023 5.51402V9.62673C9.85023 10.4527 9.21248 11.1223 8.42577 11.1223H3.44016C2.65346 11.1223 2.01571 10.4527 2.01571 9.62673ZM0.591248 5.51402C0.591248 3.8621 1.86675 2.52295 3.44016 2.52295L8.42577 2.52295C9.99918 2.52295 11.2747 3.8621 11.2747 5.51402V9.62673C11.2747 11.2787 9.99918 12.6178 8.42577 12.6178H3.44016C1.86675 12.6178 0.591247 11.2787 0.591248 9.62673L0.591248 5.51402Z" fill="white"/>
<path d="M7.08628 9.98159H8.19959L6.50629 5.15916H5.36631L3.66634 9.98159H4.78632L5.12632 8.86172H6.73962L7.08628 9.98159ZM5.41298 7.90983L5.9263 6.22303L6.44629 7.90983H5.41298Z" fill="white"/>
</svg>
